<svg width="20" height="17" viewBox="0 0 20 17" fill="none" xmlns="http://www.w3.org/2000/svg">
<path d="M19.6759 16.6336C18.6975 15.4654 18.9347 13.8769 19.1673 13.0188C19.3863 12.4833 19.5096 11.9134 19.5096 11.3174C19.5096 10.2531 19.1303 9.26389 18.4831 8.43457C17.8528 12.3048 13.9687 15.3017 9.24609 15.3754C10.331 16.1294 11.7224 16.5838 13.24 16.5838C14.3496 16.5838 15.3882 16.3396 16.291 15.9153C17.6768 16.8337 19.4024 16.9598 19.4024 16.9598C20.1484 16.9594 19.6759 16.6336 19.6759 16.6336Z" fill="#540CFA"/>
<path d="M17.7743 7.33374C17.7743 3.33621 13.8699 0.0830078 9.07173 0.0830078C4.2729 0.0830078 0.368943 3.33621 0.368943 7.33374C0.368943 8.11482 0.525454 8.89682 0.834757 9.65539C1.19383 10.9621 1.54918 13.3081 0.183594 15.1225C0.647315 15.0733 2.73104 14.7965 4.41499 13.6819L4.60638 13.5555L4.81429 13.6527C6.1115 14.2617 7.58359 14.5847 9.07173 14.5847C13.8699 14.5847 17.7743 11.3313 17.7743 7.33374Z" fill="#540CFA"/>
</svg>
