<svg width="58" height="58" viewBox="0 0 58 58" fill="none" xmlns="http://www.w3.org/2000/svg">
<g filter="url(#filter0_d)">
<rect x="4" y="2" width="50" height="50" rx="14" fill="url(#paint0_linear)"/>
</g>
<path fill-rule="evenodd" clip-rule="evenodd" d="M30.9844 36.4141C31.2344 36.7803 31.3789 37.2178 31.3789 37.6885C31.3789 38.9648 30.3125 40 29 40C27.6875 40 26.6211 38.9648 26.6211 37.6885C26.6211 37.2178 26.7656 36.7803 27.0156 36.4141L21.7344 32.3643C21.3516 32.625 20.8828 32.7773 20.3789 32.7773C19.0664 32.7773 18 31.7432 18 30.4668C18 29.3389 18.832 28.3994 19.9336 28.1963V25.8037C18.832 25.6006 18 24.6611 18 23.5332C18 22.2568 19.0664 21.2227 20.3789 21.2227C20.8828 21.2227 21.3516 21.375 21.7344 21.6357L27.0156 17.5859C26.7656 17.2197 26.6211 16.7822 26.6211 16.3115C26.6211 15.0352 27.6875 14 29 14C30.3125 14 31.3789 15.0352 31.3789 16.3115C31.3789 16.7822 31.2344 17.2197 30.9844 17.5859L36.2656 21.6357C36.6484 21.375 37.1172 21.2227 37.6211 21.2227C38.9336 21.2227 40 22.2568 40 23.5332C40 24.6611 39.168 25.6006 38.0664 25.8037V28.1963C39.168 28.3994 40 29.3389 40 30.4668C40 31.7432 38.9336 32.7773 37.6211 32.7773C37.1172 32.7773 36.6484 32.625 36.2656 32.3643L30.9844 36.4141ZM28.5547 32.7373V35.418C28.2188 35.4795 27.9102 35.6094 27.6445 35.791L22.3633 31.7412C22.6133 31.376 22.7578 30.9375 22.7578 30.4668C22.7578 29.999 22.6133 29.5635 22.3672 29.2002L24.6914 27.5381L27.0117 29.2002C26.7656 29.5635 26.6211 29.999 26.6211 30.4668C26.6211 31.5947 27.4531 32.5342 28.5547 32.7373ZM30.3555 35.791C30.0898 35.6094 29.7773 35.4795 29.4453 35.418V32.7373C30.5469 32.5342 31.3789 31.5947 31.3789 30.4668C31.3789 29.999 31.2344 29.5635 30.9883 29.2002L33.3086 27.5381L35.6328 29.2002C35.3867 29.5635 35.2422 29.999 35.2422 30.4668C35.2422 30.9375 35.3867 31.376 35.6367 31.7412L30.3555 35.791ZM23.9375 27L21.7422 28.5723C21.4727 28.3887 21.1602 28.2578 20.8242 28.1963V25.8037C21.1602 25.7422 21.4727 25.6113 21.7422 25.4277L23.9375 27ZM22.3672 24.7998L24.6914 26.4619L27.0117 24.7998C26.7656 24.4365 26.6211 24.001 26.6211 23.5332C26.6211 22.4053 27.4531 21.4658 28.5547 21.2627V18.582C28.2188 18.5205 27.9102 18.3906 27.6445 18.209L22.3633 22.2588C22.6133 22.624 22.7578 23.0625 22.7578 23.5332C22.7578 24.001 22.6133 24.4365 22.3672 24.7998ZM37.1758 28.1963C36.8398 28.2578 36.5273 28.3887 36.2578 28.5723L34.0625 27L36.2578 25.4277C36.5273 25.6113 36.8398 25.7422 37.1758 25.8037V28.1963ZM35.6367 22.2588L30.3555 18.209C30.0898 18.3906 29.7773 18.5205 29.4453 18.582V21.2627C30.5469 21.4658 31.3789 22.4053 31.3789 23.5332C31.3789 24.001 31.2344 24.4365 30.9883 24.7998L33.3086 26.4619L35.6328 24.7998C35.3867 24.4365 35.2422 24.001 35.2422 23.5332C35.2422 23.0625 35.3867 22.624 35.6367 22.2588ZM29 28.1553C28.4922 28.1553 28.0234 28.3096 27.6367 28.5723L25.4414 27L27.6367 25.4277C28.0234 25.6904 28.4922 25.8447 29 25.8447C29.5078 25.8447 29.9766 25.6904 30.3633 25.4277L32.5586 27L30.3633 28.5723C29.9766 28.3096 29.5078 28.1553 29 28.1553ZM29 24.9775C29.8203 24.9775 30.4844 24.3311 30.4844 23.5332C30.4844 22.7354 29.8203 22.0889 29 22.0889C28.1758 22.0889 27.5117 22.7354 27.5117 23.5332C27.5117 24.3311 28.1758 24.9775 29 24.9775ZM30.4844 30.4668C30.4844 31.2646 29.8203 31.9111 29 31.9111C28.1758 31.9111 27.5117 31.2646 27.5117 30.4668C27.5117 29.6689 28.1758 29.0225 29 29.0225C29.8203 29.0225 30.4844 29.6689 30.4844 30.4668ZM37.625 24.9775C38.4453 24.9775 39.1094 24.3311 39.1094 23.5332C39.1094 22.7354 38.4453 22.0889 37.625 22.0889C36.8008 22.0889 36.1367 22.7354 36.1367 23.5332C36.1367 24.3311 36.8008 24.9775 37.625 24.9775ZM39.1094 30.4668C39.1094 31.2646 38.4453 31.9111 37.625 31.9111C36.8008 31.9111 36.1367 31.2646 36.1367 30.4668C36.1367 29.6689 36.8008 29.0225 37.625 29.0225C38.4453 29.0225 39.1094 29.6689 39.1094 30.4668ZM20.3789 24.9775C21.1992 24.9775 21.8633 24.3311 21.8633 23.5332C21.8633 22.7354 21.1992 22.0889 20.3789 22.0889C19.5547 22.0889 18.8906 22.7354 18.8906 23.5332C18.8906 24.3311 19.5547 24.9775 20.3789 24.9775ZM21.8633 30.4668C21.8633 31.2646 21.1992 31.9111 20.3789 31.9111C19.5547 31.9111 18.8906 31.2646 18.8906 30.4668C18.8906 29.6689 19.5547 29.0225 20.3789 29.0225C21.1992 29.0225 21.8633 29.6689 21.8633 30.4668ZM29 39.1328C29.8203 39.1328 30.4844 38.4863 30.4844 37.6885C30.4844 36.8906 29.8203 36.2441 29 36.2441C28.1758 36.2441 27.5117 36.8906 27.5117 37.6885C27.5117 38.4863 28.1758 39.1328 29 39.1328ZM30.4844 16.3105C30.4844 17.1084 29.8203 17.7549 29 17.7549C28.1758 17.7549 27.5117 17.1084 27.5117 16.3105C27.5117 15.5127 28.1758 14.8662 29 14.8662C29.8203 14.8662 30.4844 15.5127 30.4844 16.3105Z" fill="white"/>
<defs>
<filter id="filter0_d" x="0" y="0" width="58" height="58" filterUnits="userSpaceOnUse" color-interpolation-filters="sRGB">
<feFlood flood-opacity="0" result="BackgroundImageFix"/>
<feColorMatrix in="SourceAlpha" type="matrix" values="0 0 0 0 0 0 0 0 0 0 0 0 0 0 0 0 0 0 127 0"/>
<feOffset dy="2"/>
<feGaussianBlur stdDeviation="2"/>
<feColorMatrix type="matrix" values="0 0 0 0 0.501961 0 0 0 0 0.12549 0 0 0 0 0 0 0 0 0.15 0"/>
<feBlend mode="normal" in2="BackgroundImageFix" result="effect1_dropShadow"/>
<feBlend mode="normal" in="SourceGraphic" in2="effect1_dropShadow" result="shape"/>
</filter>
<linearGradient id="paint0_linear" x1="-21" y1="27" x2="29" y2="77" gradientUnits="userSpaceOnUse">
<stop stop-color="#F2C314"/>
<stop offset="1" stop-color="#FC3832"/>
</linearGradient>
</defs>
</svg>
