<svg width="20" height="20" viewBox="0 0 20 20" fill="none" xmlns="http://www.w3.org/2000/svg">
<path d="M10 20C15.5228 20 20 15.5228 20 10C20 4.47715 15.5228 0 10 0C4.47715 0 0 4.47715 0 10C0 15.5228 4.47715 20 10 20Z" fill="#540CFA"/>
<path d="M17.6174 12.279C16.6035 15.3785 13.6882 17.6174 10.25 17.6174C5.96979 17.6174 2.5 14.1477 2.5 9.86745C2.5 6.42921 4.73896 3.51391 7.83842 2.5C6.99665 3.65546 6.5 5.07845 6.5 6.61745C6.5 10.4834 9.63401 13.6174 13.5 13.6174C15.039 13.6174 16.462 13.1208 17.6174 12.279Z" fill="white"/>
</svg>
