<svg width="18" height="14" viewBox="0 0 18 14" fill="none" xmlns="http://www.w3.org/2000/svg">
<path d="M18 1.65741C17.3259 1.94305 16.611 2.13057 15.879 2.21376C16.6403 1.77589 17.226 1.08391 17.5016 0.258178C16.7767 0.669862 15.9837 0.959909 15.1567 1.11578C14.4587 0.40239 13.4826 -0.00169113 12.4615 5.32016e-06C10.4229 5.32016e-06 8.76838 1.58201 8.76838 3.53353C8.76838 3.81082 8.80099 4.08108 8.86484 4.33915C5.79529 4.19154 3.07483 2.78528 1.25308 0.64692C0.93499 1.16821 0.75355 1.77589 0.75355 2.42368C0.75355 3.64915 1.40524 4.73097 2.39593 5.3648C1.80938 5.3476 1.23569 5.19601 0.723004 4.92275V4.96782C0.723004 6.67951 1.99607 8.10787 3.68461 8.43319C3.14079 8.57412 2.5706 8.59479 2.0172 8.49364C2.48734 9.89782 3.85158 10.9193 5.46686 10.949C4.20321 11.8953 2.61113 12.4613 0.880558 12.4613C0.586291 12.461 0.292287 12.4445 0 12.4118C1.63411 13.4142 3.57563 14 5.66093 14C12.4534 14 16.1672 8.6141 16.1672 3.94348C16.1672 3.79071 16.1672 3.63794 16.1557 3.48627C16.8784 2.98587 17.5024 2.36664 17.9989 1.65741H18Z" fill="white"/>
</svg>
