<svg width="58" height="58" viewBox="0 0 58 58" fill="none" xmlns="http://www.w3.org/2000/svg">
<g filter="url(#filter0_d)">
<rect x="4" y="2" width="50" height="50" rx="14" fill="url(#paint0_linear)"/>
</g>
<path fill-rule="evenodd" clip-rule="evenodd" d="M33.2695 17.8652C33.2695 20.5518 35.4492 22.7295 38.1328 22.7295C40.8203 22.7295 43 20.5518 43 17.8652C43 15.1777 40.8203 13 38.1328 13C35.4492 13 33.2695 15.1777 33.2695 17.8652ZM31.332 17.54C31.3516 17.0957 31.418 16.6621 31.5195 16.2432H22.8906C20.7422 16.2432 19 17.9863 19 20.1348V33.1084C19 35.2578 20.7422 37 22.8906 37H35.8633C38.0156 37 39.7578 35.2568 39.7578 33.1084V24.4814C39.3398 24.584 38.9062 24.6475 38.4609 24.668V33.1084C38.4609 34.541 37.2969 35.7021 35.8633 35.7021H22.8906C21.4609 35.7021 20.2969 34.541 20.2969 33.1084V20.1348C20.2969 18.7021 21.4609 17.54 22.8906 17.54H31.332Z" fill="white"/>
<defs>
<filter id="filter0_d" x="0" y="0" width="58" height="58" filterUnits="userSpaceOnUse" color-interpolation-filters="sRGB">
<feFlood flood-opacity="0" result="BackgroundImageFix"/>
<feColorMatrix in="SourceAlpha" type="matrix" values="0 0 0 0 0 0 0 0 0 0 0 0 0 0 0 0 0 0 127 0"/>
<feOffset dy="2"/>
<feGaussianBlur stdDeviation="2"/>
<feColorMatrix type="matrix" values="0 0 0 0 0.0313726 0 0 0 0 0.14902 0 0 0 0 0.658824 0 0 0 0.15 0"/>
<feBlend mode="normal" in2="BackgroundImageFix" result="effect1_dropShadow"/>
<feBlend mode="normal" in="SourceGraphic" in2="effect1_dropShadow" result="shape"/>
</filter>
<linearGradient id="paint0_linear" x1="-21" y1="27" x2="29" y2="77" gradientUnits="userSpaceOnUse">
<stop stop-color="#32FBFC"/>
<stop offset="1" stop-color="#3214F2"/>
</linearGradient>
</defs>
</svg>
