<svg width="19" height="16" viewBox="0 0 19 16" fill="none" xmlns="http://www.w3.org/2000/svg">
<path d="M19 1.89418C18.2885 2.22063 17.5339 2.43494 16.7612 2.53001C17.5648 2.02959 18.183 1.23876 18.4739 0.29506C17.7088 0.765557 16.8717 1.09704 15.9987 1.27518C15.262 0.459875 14.2317 -0.00193272 13.1538 6.08018e-06C11.002 6.08018e-06 9.25551 1.80801 9.25551 4.03832C9.25551 4.35523 9.28993 4.6641 9.35733 4.95902C6.11725 4.79033 3.24566 3.18317 1.3227 0.739337C0.986934 1.3351 0.795414 2.02959 0.795414 2.76992C0.795414 4.17045 1.48331 5.40682 2.52903 6.1312C1.9099 6.11154 1.30434 5.93829 0.763171 5.626V5.6775C0.763171 7.63373 2.10696 9.26614 3.88931 9.63794C3.31528 9.799 2.71341 9.82262 2.12927 9.70702C2.62552 11.3118 4.06556 12.4792 5.77057 12.5131C4.43672 13.5946 2.75619 14.2415 0.929478 14.2415C0.618863 14.2411 0.308525 14.2222 0 14.185C1.72489 15.3305 3.77428 16 5.97543 16C13.1453 16 17.0654 9.84469 17.0654 4.50683C17.0654 4.33224 17.0654 4.15764 17.0533 3.9843C17.8161 3.41243 18.4748 2.70473 18.9988 1.89418H19Z" fill="black"/>
</svg>
